<svg xmlns="http://www.w3.org/2000/svg" viewBox="0 0 431.281 431.281" style="enable-background:new 0 0 431.281 431.281" xml:space="preserve"><circle style="fill:#f9dea0" cx="215.64" cy="215.641" r="209.193"/><circle style="fill:#fcbc1d" cx="215.64" cy="215.641" r="191.312"/><circle style="fill:#f24125" cx="215.64" cy="215.641" r="170.64"/><path style="fill:#fff" d="M322.158 327.159a5 5 0 0 1-3.536-8.535c48.68-48.68 56.517-125.701 18.634-183.14a5 5 0 1 1 8.348-5.506c40.485 61.385 32.111 143.695-19.911 195.717a4.983 4.983 0 0 1-3.535 1.464zM329.83 122.381a4.987 4.987 0 0 1-3.79-1.736 147.131 147.131 0 0 0-7.417-7.987 5 5 0 0 1 0-7.071 5 5 0 0 1 7.071 0 157.064 157.064 0 0 1 7.921 8.53 5 5 0 0 1-3.785 8.264zM92.239 307.06a4.995 4.995 0 0 1-4.099-2.13c-20.736-29.579-30.519-65.843-27.546-102.11 3.007-36.696 18.985-71.227 44.991-97.233a5 5 0 0 1 7.071 0 5 5 0 0 1 0 7.071c-24.332 24.331-39.281 56.641-42.096 90.978-2.782 33.946 6.369 67.881 25.768 95.553a5 5 0 0 1-4.089 7.871zM109.122 327.159a4.983 4.983 0 0 1-3.535-1.464 157.702 157.702 0 0 1-5.549-5.839 5 5 0 1 1 7.423-6.701 149.922 149.922 0 0 0 5.196 5.469 5 5 0 0 1-3.535 8.535z"/><path style="fill:#333" d="M388.532 100.435a4.993 4.993 0 0 1-4.105-2.14C345.87 43.008 282.772 10.001 215.64 10.001c-9.013 0-18.085.592-26.963 1.76a5 5 0 1 1-1.303-9.914A217.396 217.396 0 0 1 215.64.001c70.399 0 136.564 34.607 176.989 92.573a5 5 0 0 1-4.097 7.861zM154.146 19.156a5 5 0 0 1-1.46-9.783 214.634 214.634 0 0 1 15.179-4.038 5 5 0 0 1 2.214 9.752 205.134 205.134 0 0 0-14.468 3.849c-.488.149-.981.22-1.465.22zM60.226 362.677a4.988 4.988 0 0 1-3.691-1.625C20.078 321.195 0 269.554 0 215.641c0-43.346 12.865-85.176 37.204-120.966 23.751-34.926 56.826-61.95 95.648-78.15a5 5 0 0 1 3.852 9.229c-37.027 15.45-68.574 41.227-91.23 74.544C22.267 134.424 10 174.308 10 215.641c0 51.408 19.147 100.653 53.914 138.663a5 5 0 0 1-3.688 8.373zM215.64 431.281c-51.806 0-101.921-18.718-141.113-52.707a5 5 0 1 1 6.552-7.554c37.374 32.412 85.162 50.261 134.562 50.261 113.39 0 205.64-92.25 205.64-205.64 0-31.757-7.077-62.225-21.034-90.559a5 5 0 0 1 8.971-4.419c14.64 29.72 22.063 61.675 22.063 94.978-.001 118.903-96.737 215.64-215.641 215.64z"/><path style="fill:#333" d="M308.63 387.029a4.999 4.999 0 0 1-2.451-9.361c58.66-32.912 95.101-94.997 95.101-162.026 0-9.158-.676-18.363-2.01-27.358a5 5 0 0 1 9.891-1.467 197.109 197.109 0 0 1 2.119 28.825c0 70.641-38.397 136.067-100.207 170.747a4.992 4.992 0 0 1-2.443.64zM400.286 173.139a5.003 5.003 0 0 1-4.839-3.755c-10.073-39.132-33.241-74.545-65.238-99.714-32.991-25.952-72.608-39.669-114.569-39.669-37.136 0-73 10.977-103.714 31.745a5 5 0 0 1-5.602-8.284c32.375-21.89 70.175-33.461 109.316-33.461 44.226 0 85.981 14.458 120.752 41.809 33.711 26.518 58.123 63.836 68.74 105.081a5 5 0 0 1-4.846 6.248zM80.553 86.25a5 5 0 0 1-3.544-8.527 198.095 198.095 0 0 1 10.388-9.714 5 5 0 0 1 6.563 7.545 187.88 187.88 0 0 0-9.861 9.222 4.993 4.993 0 0 1-3.546 1.474zM215.64 411.281C107.764 411.281 20 323.516 20 215.641c0-44.769 15.574-88.559 43.853-123.306a5 5 0 1 1 7.756 6.312C44.777 131.616 30 173.165 30 215.641c0 102.362 83.277 185.64 185.64 185.64 25.918 0 51.009-5.263 74.576-15.642a5 5 0 0 1 4.03 9.152c-24.844 10.941-51.291 16.49-78.606 16.49z"/><path style="fill:#333" d="M45 220.641a5 5 0 0 1-5-5c0-48.362 19.243-93.422 54.185-126.879a5 5 0 0 1 6.916 7.222C68.148 127.538 50 170.032 50 215.641a5 5 0 0 1-5 5zM215.64 391.281c-42.704 0-83.867-15.509-115.906-43.671-31.745-27.903-52.376-66.213-58.094-107.874a5 5 0 1 1 9.907-1.359c5.391 39.28 24.848 75.406 54.789 101.722 30.213 26.557 69.032 41.182 109.304 41.182 25.079 0 49.169-5.461 71.601-16.231a5 5 0 0 1 4.328 9.014c-23.794 11.425-49.34 17.217-75.929 17.217zM304.479 366.364a5 5 0 0 1-2.611-9.267 166.433 166.433 0 0 0 12.91-8.746 5 5 0 1 1 5.991 8.007 176.449 176.449 0 0 1-13.688 9.273 4.988 4.988 0 0 1-2.602.733zM333.127 344.395a5 5 0 0 1-3.443-8.626c33.272-31.598 51.596-74.26 51.596-120.128 0-91.334-74.306-165.64-165.64-165.64-34.333 0-67.266 10.408-95.238 30.1a5 5 0 1 1-5.757-8.177c29.667-20.884 64.59-31.923 100.995-31.923 96.848 0 175.64 78.792 175.64 175.64 0 48.637-19.43 93.875-54.71 127.38a4.99 4.99 0 0 1-3.443 1.374z"/></svg>